<svg width="35" height="34" viewBox="0 0 35 34" fill="none" xmlns="http://www.w3.org/2000/svg">
<mask id="mask0_101_924" style="mask-type:alpha" maskUnits="userSpaceOnUse" x="0" y="0" width="35" height="34">
<rect x="0.5" width="34" height="34" fill="#D9D9D9"/>
</mask>
<g mask="url(#mask0_101_924)">
<path d="M17.4844 24.9551C17.8889 24.9551 18.2306 24.8155 18.5094 24.5362C18.7882 24.2569 18.9275 23.915 18.9275 23.5105C18.9275 23.106 18.7879 22.7643 18.5086 22.4856C18.2293 22.2068 17.8874 22.0674 17.4829 22.0674C17.0784 22.0674 16.7367 22.207 16.458 22.4863C16.1792 22.7656 16.0398 23.1075 16.0398 23.512C16.0398 23.9165 16.1794 24.2582 16.4587 24.537C16.738 24.8157 17.0799 24.9551 17.4844 24.9551ZM16.4811 19.8824H18.4753C18.4935 19.185 18.5956 18.6278 18.7818 18.211C18.968 17.7942 19.4197 17.2416 20.1372 16.5533C20.7601 15.9303 21.2373 15.355 21.5688 14.8274C21.9003 14.2998 22.066 13.6767 22.066 12.9581C22.066 11.7388 21.6278 10.7863 20.7515 10.1006C19.8752 9.41501 18.8386 9.0722 17.6417 9.0722C16.4593 9.0722 15.4808 9.38778 14.7062 10.0189C13.9316 10.6501 13.379 11.3933 13.0484 12.2488L14.8683 12.9789C15.0408 12.5085 15.3359 12.0503 15.7537 11.6045C16.1714 11.1586 16.7917 10.9356 17.6144 10.9356C18.4517 10.9356 19.0706 11.1649 19.4711 11.6235C19.8716 12.0821 20.0718 12.5866 20.0718 13.1369C20.0718 13.6182 19.9347 14.0587 19.6604 14.4582C19.3862 14.8578 19.0366 15.2438 18.6116 15.6161C17.6817 16.4552 17.0941 17.1245 16.8489 17.6239C16.6037 18.1234 16.4811 18.8762 16.4811 19.8824ZM17.5024 30.4583C15.641 30.4583 13.8913 30.1051 12.2535 29.3987C10.6156 28.6922 9.19088 27.7335 7.97933 26.5225C6.76775 25.3115 5.80858 23.8874 5.10183 22.2502C4.39508 20.6131 4.0417 18.8638 4.0417 17.0024C4.0417 15.141 4.39492 13.3914 5.10137 11.7535C5.80781 10.1156 6.76654 8.69093 7.97756 7.47938C9.18859 6.26779 10.6127 5.30863 12.2498 4.60188C13.887 3.89513 15.6362 3.54175 17.4976 3.54175C19.359 3.54175 21.1087 3.89497 22.7465 4.60142C24.3844 5.30786 25.8091 6.26659 27.0207 7.4776C28.2323 8.68864 29.1914 10.1127 29.8982 11.7499C30.6049 13.387 30.9583 15.1363 30.9583 16.9977C30.9583 18.8591 30.6051 20.6087 29.8986 22.2466C29.1922 23.8844 28.2335 25.3092 27.0224 26.5207C25.8114 27.7323 24.3873 28.6915 22.7502 29.3982C21.113 30.105 19.3638 30.4583 17.5024 30.4583ZM17.5 28.3334C20.6639 28.3334 23.3438 27.2355 25.5396 25.0396C27.7354 22.8438 28.8333 20.1639 28.8333 17C28.8333 13.8362 27.7354 11.1563 25.5396 8.96046C23.3438 6.76463 20.6639 5.66671 17.5 5.66671C14.3361 5.66671 11.6563 6.76463 9.46042 8.96046C7.26458 11.1563 6.16667 13.8362 6.16667 17C6.16667 20.1639 7.26458 22.8438 9.46042 25.0396C11.6563 27.2355 14.3361 28.3334 17.5 28.3334Z" fill="#1C1B1F"/>
</g>
</svg>
