<svg width="35" height="34" viewBox="0 0 35 34" fill="none" xmlns="http://www.w3.org/2000/svg">
<mask id="mask0_101_917" style="mask-type:alpha" maskUnits="userSpaceOnUse" x="0" y="0" width="35" height="34">
<rect x="0.5" width="34" height="34" fill="#D9D9D9"/>
</mask>
<g mask="url(#mask0_101_917)">
<path d="M16.4375 23.7292H18.5625V15.5834H16.4375V23.7292ZM17.5 13.1587C17.8242 13.1587 18.096 13.0491 18.3153 12.8298C18.5346 12.6105 18.6442 12.3387 18.6442 12.0145C18.6442 11.6903 18.5346 11.4186 18.3153 11.1993C18.096 10.98 17.8242 10.8703 17.5 10.8703C17.1758 10.8703 16.904 10.98 16.6847 11.1993C16.4654 11.4186 16.3558 11.6903 16.3558 12.0145C16.3558 12.3387 16.4654 12.6105 16.6847 12.8298C16.904 13.0491 17.1758 13.1587 17.5 13.1587ZM17.5024 30.4583C15.641 30.4583 13.8913 30.1051 12.2535 29.3987C10.6156 28.6922 9.19088 27.7335 7.97933 26.5225C6.76775 25.3115 5.80858 23.8874 5.10183 22.2502C4.39508 20.6131 4.0417 18.8638 4.0417 17.0024C4.0417 15.141 4.39492 13.3914 5.10137 11.7535C5.80781 10.1156 6.76654 8.69093 7.97756 7.47938C9.18859 6.26779 10.6127 5.30863 12.2498 4.60188C13.887 3.89513 15.6362 3.54175 17.4976 3.54175C19.359 3.54175 21.1087 3.89497 22.7465 4.60142C24.3844 5.30786 25.8091 6.26659 27.0207 7.4776C28.2323 8.68864 29.1914 10.1127 29.8982 11.7499C30.6049 13.387 30.9583 15.1363 30.9583 16.9977C30.9583 18.8591 30.6051 20.6087 29.8986 22.2466C29.1922 23.8844 28.2335 25.3092 27.0224 26.5207C25.8114 27.7323 24.3873 28.6915 22.7502 29.3982C21.113 30.105 19.3638 30.4583 17.5024 30.4583ZM17.5 28.3334C20.6639 28.3334 23.3438 27.2355 25.5396 25.0396C27.7354 22.8438 28.8333 20.1639 28.8333 17C28.8333 13.8362 27.7354 11.1563 25.5396 8.96046C23.3438 6.76463 20.6639 5.66671 17.5 5.66671C14.3361 5.66671 11.6563 6.76463 9.46042 8.96046C7.26458 11.1563 6.16667 13.8362 6.16667 17C6.16667 20.1639 7.26458 22.8438 9.46042 25.0396C11.6563 27.2355 14.3361 28.3334 17.5 28.3334Z" fill="#1C1B1F"/>
</g>
</svg>
